<?xml version="1.0" encoding="UTF-8" standalone="no"?>
<!-- Created with Inkscape (http://www.inkscape.org/) -->

<svg
   xmlns:dc="http://purl.org/dc/elements/1.1/"
   xmlns:cc="http://creativecommons.org/ns#"
   xmlns:rdf="http://www.w3.org/1999/02/22-rdf-syntax-ns#"
   xmlns:svg="http://www.w3.org/2000/svg"
   xmlns="http://www.w3.org/2000/svg"
   xmlns:sodipodi="http://sodipodi.sourceforge.net/DTD/sodipodi-0.dtd"
   xmlns:inkscape="http://www.inkscape.org/namespaces/inkscape"
   sodipodi:docname="beetle-solo.dxf"
   inkscape:version="0.48.4 r9939"
   version="1.1"
   id="svg4405"
   height="538.4798"
   width="618.75812">
  <defs
     id="defs4407" />
  <sodipodi:namedview
     id="base"
     pagecolor="#ffffff"
     bordercolor="#666666"
     borderopacity="1.0"
     inkscape:pageopacity="0.0"
     inkscape:pageshadow="2"
     inkscape:zoom="0.7"
     inkscape:cx="218.66477"
     inkscape:cy="160.66847"
     inkscape:document-units="px"
     inkscape:current-layer="layer1"
     showgrid="false"
     fit-margin-top="0"
     fit-margin-left="0"
     fit-margin-right="0"
     fit-margin-bottom="0"
     inkscape:window-width="1440"
     inkscape:window-height="876"
     inkscape:window-x="0"
     inkscape:window-y="24"
     inkscape:window-maximized="1" />
  <metadata
     id="metadata4410">
    <rdf:RDF>
      <cc:Work
         rdf:about="">
        <dc:format>image/svg+xml</dc:format>
        <dc:type
           rdf:resource="http://purl.org/dc/dcmitype/StillImage" />
        <dc:title></dc:title>
      </cc:Work>
    </rdf:RDF>
  </metadata>
  <g
     inkscape:groupmode="layer"
     id="layer2"
     inkscape:label="bac"
     sodipodi:insensitive="true">
    <rect
       style="fill:#aa8800;fill-opacity:1;stroke:none;display:inline"
       id="rect3961-5-4"
       width="618.75812"
       height="538.4798"
       x="0"
       y="0"
       ry="230.0466" />
  </g>
  <g
     inkscape:label="Layer 1"
     inkscape:groupmode="layer"
     id="layer1"
     transform="translate(63.664772,-211.69371)">
    <path
       style="fill:#000000;stroke:none;stroke-width:8.60000038000000089;stroke-miterlimit:4;stroke-opacity:1;stroke-dasharray:none;display:inline;fill-opacity:1"
       d="m 207.98025,269.72712 c -7.3768,0 -14.6147,0.6351 -21.625,1.875 0.8416,2.5035 1.3125,5.1816 1.3125,7.9687 0,13.8072 -11.1929,25 -25,25 -9.9973,0 -18.6254,-5.864 -22.625,-14.3437 -32.8182,21.8873 -54.375003,31.2383 -54.375003,73.8125 l 0,6.0312 c 0,1.0244 0.01,2.0443 0.031,3.0625 l 320.031203,0 c 0.025,-1.0182 0.031,-2.0381 0.031,-3.0625 l 0,-6.0312 c 0,-39.7225 -18.7437,-46.9024 -47.9062,-69.2188 -4.4195,7.0551 -12.2485,11.75 -21.1875,11.75 -13.8071,0 -25,-11.1928 -25,-25 0,-2.8915 0.5032,-5.6665 1.4062,-8.25 -9.472,-2.3386 -19.3787,-3.5937 -29.5936,-3.5937 l -75.5,0 z"
       id="path3759-4-2"
       inkscape:connector-curvature="0"
       sodipodi:nodetypes="ccsscssccsscsscscc" />
    <path
       style="fill:#000000;stroke:none;display:inline;fill-opacity:1"
       d="m 410,139.09448 c 0,13.80712 -11.19288,25 -25,25 -13.80712,0 -25,-11.19288 -25,-25 0,-13.80712 11.19288,-25 25,-25 13.80712,0 25,11.19288 25,25 z"
       id="path3783-0-3"
       transform="matrix(0.62319229,0,0,0.62319229,-77.728653,190.88897)" />
    <path
       style="fill:#000000;stroke:none;display:inline;fill-opacity:1"
       d="m 410,139.09448 c 0,13.80712 -11.19288,25 -25,25 -13.80712,0 -25,-11.19288 -25,-25 0,-13.80712 11.19288,-25 25,-25 13.80712,0 25,11.19288 25,25 z"
       id="path3785-2-6"
       transform="matrix(0.62319229,0,0,0.62319229,96.271347,192.88897)" />
    <path
       style="fill:#000000;stroke:none;display:inline;fill-opacity:1"
       d="M 145.03125 199.625 C 140.09449 199.625 135.69823 201.91743 132.84375 205.5 L 79.71875 205.5 C 76.904493 202.71755 73.051453 201 68.78125 201 C 60.176759 201 53.1875 207.98926 53.1875 216.59375 C 53.1875 225.19824 60.176759 232.15625 68.78125 232.15625 C 74.063886 232.15625 78.713891 229.52116 81.53125 225.5 L 133.375 225.5 C 136.22928 228.72148 140.38872 230.78125 145.03125 230.78125 C 153.63574 230.78125 160.59375 223.79199 160.59375 215.1875 C 160.59375 206.58301 153.63574 199.625 145.03125 199.625 z "
       id="path3925-1-6"
       transform="translate(-63.664772,211.69371)" />
    <path
       inkscape:connector-curvature="0"
       style="fill:#000000;stroke:none;stroke-width:1px;stroke-linecap:butt;stroke-linejoin:miter;stroke-opacity:1;display:inline;fill-opacity:1"
       d="m 87.167147,390.51812 c 0,0 -0.4754,4.552 -1.125,11.875 9.5203,0.6944 17.563503,6.6939 21.187503,15.0624 l 21.9375,0 60,60 0,-30 20,0 0,40 28,0 0,-96.9374 -150.000003,0 z m 20.031203,46.9374 c -3.8701,8.8676 -12.706303,15.0626 -23.000003,15.0626 -0.4855,0 -0.9587,0 -1.4374,-0.031 -1.1843,28.2069 -1.3819,61.4689 1.7187,89.5 1.4614,-0.2649 2.9622,-0.4063 4.5,-0.4063 10.6056,0 19.670403,6.5753 23.343703,15.8751 l 6.8438,0 10,-10.0001 0,-36 18,18 32,-32 -60,-60 -11.9688,0 z m 101.9688,70 0,40 -20,0 0,-30 -27,27 17,17.0001 -34,0 -16,16 -17.5625,0 c -2.8884,6.0381 -8.0953,10.7458 -14.500003,12.9376 0.023,0.039 0.039,0.086 0.062,0.125 7.856603,13.1369 23.123403,23.7189 40.781203,32.125 3.8663,-8.8771 12.7309,-15.0625 23.0313,-15.0626 13.8589,0 25.0937,11.2349 25.0937,25.0938 0,2.4046 -0.3373,4.7046 -0.9687,6.9062 28.3074,7.7514 52.0625,10.9375 52.0625,10.9376 l 0,-143.0627 -28,0 z"
       id="path4011-9-4" />
    <path
       style="fill:#000000;stroke:none;display:inline;fill-opacity:1"
       d="M 150.96875 339.09375 C 146.03199 339.09375 141.63573 341.38618 138.78125 344.96875 L 85.65625 344.96875 C 82.841993 342.1863 78.988953 340.46875 74.71875 340.46875 C 66.114259 340.46875 59.125 347.42676 59.125 356.03125 C 59.125 364.63574 66.114259 371.625 74.71875 371.625 C 80.000199 371.625 84.651192 368.98838 87.46875 364.96875 L 139.3125 364.96875 C 142.16678 368.19023 146.32622 370.25 150.96875 370.25 C 159.57324 370.25 166.53125 363.26074 166.53125 354.65625 C 166.53125 346.05176 159.57324 339.09375 150.96875 339.09375 z "
       id="path3925-1-5-19"
       transform="translate(-63.664772,211.69371)" />
    <path
       style="fill:#000000;stroke:none;display:inline;fill-opacity:1"
       d="M 224.59375 404.71875 C 220.60756 404.80941 216.65969 406.42071 213.6875 409.53125 C 210.27476 413.10285 208.87881 417.86481 209.5 422.40625 L 172.78125 460.8125 C 168.83812 460.93408 164.94069 462.54742 162 465.625 C 156.05563 471.84607 156.27893 481.68063 162.5 487.625 C 168.72107 493.56937 178.58688 493.34607 184.53125 487.125 C 188.18372 483.30252 189.49673 478.13078 188.53125 473.3125 L 224.34375 435.84375 C 228.651 436.01116 233.00672 434.42405 236.21875 431.0625 C 242.16312 424.84143 241.93982 414.97562 235.71875 409.03125 C 232.60821 406.05906 228.57994 404.62809 224.59375 404.71875 z "
       id="path3925-1-5-1-4"
       transform="translate(-63.664772,211.69371)" />
    <path
       style="fill:#000000;stroke:none;display:inline;fill-opacity:1"
       d="M 473.4375 199.625 C 464.83301 199.625 457.84375 206.58301 457.84375 215.1875 C 457.84375 223.79199 464.83301 230.78125 473.4375 230.78125 C 478.08003 230.78125 482.20822 228.72148 485.0625 225.5 L 536.90625 225.5 C 539.72361 229.52116 544.40486 232.15625 549.6875 232.15625 C 558.29199 232.15625 565.25 225.19824 565.25 216.59375 C 565.25 207.98926 558.29199 201 549.6875 201 C 545.4173 201 541.53301 202.71755 538.71875 205.5 L 485.59375 205.5 C 482.73927 201.91743 478.37426 199.625 473.4375 199.625 z "
       id="path4123-0"
       transform="translate(-63.664772,211.69371)" />
    <path
       id="path4130-9"
       d="m 403.94795,390.51812 c 0,0 0.4754,4.552 1.125,11.875 -9.5203,0.6944 -17.5635,6.6939 -21.1875,15.0624 l -21.9375,0 -60,60 0,-30 -20,0 0,40 -28,0 0,-96.9374 150,0 z m -20.0312,46.9374 c 3.8701,8.8676 12.7063,15.0626 23,15.0626 0.4855,0 0.9587,0 1.4374,-0.031 1.1843,28.2069 1.3819,61.4689 -1.7187,89.5 -1.4614,-0.2649 -2.9622,-0.4063 -4.5,-0.4063 -10.6056,0 -19.6704,6.5753 -23.3437,15.8751 l -6.8438,0 -10,-10.0001 0,-36 -18,18 -32,-32 60,-60 11.9688,0 z m -101.9688,70 0,40 20,0 0,-30 27,27 -17,17.0001 34,0 16,16 17.5625,0 c 2.8884,6.0381 8.0953,10.7458 14.5,12.9376 -0.023,0.039 -0.039,0.086 -0.062,0.125 -7.8566,13.1369 -23.1234,23.7189 -40.7812,32.125 -3.8663,-8.8771 -12.7309,-15.0625 -23.0313,-15.0626 -13.8589,0 -25.0937,11.2349 -25.0937,25.0938 0,2.4046 0.3373,4.7046 0.9687,6.9062 -28.3074,7.7514 -52.0625,10.9375 -52.0625,10.9376 l 0,-143.0627 28,0 z"
       style="fill:#000000;stroke:none;stroke-width:1px;stroke-linecap:butt;stroke-linejoin:miter;stroke-opacity:1;display:inline;fill-opacity:1"
       inkscape:connector-curvature="0" />
    <path
       style="fill:#000000;stroke:none;display:inline;fill-opacity:1"
       d="M 467.46875 339.09375 C 458.86426 339.09375 451.90625 346.05176 451.90625 354.65625 C 451.90625 363.26074 458.86426 370.25 467.46875 370.25 C 472.11128 370.25 476.27072 368.19023 479.125 364.96875 L 530.96875 364.96875 C 533.78611 368.98991 538.43611 371.625 543.71875 371.625 C 552.32324 371.625 559.3125 364.63574 559.3125 356.03125 C 559.3125 347.42676 552.32324 340.46875 543.71875 340.46875 C 539.44855 340.46875 535.59551 342.1863 532.78125 344.96875 L 479.65625 344.96875 C 476.80177 341.38618 472.40551 339.09375 467.46875 339.09375 z "
       id="path4134-1"
       transform="translate(-63.664772,211.69371)" />
    <path
       style="fill:#000000;stroke:none;display:inline;fill-opacity:1"
       d="M 393.84375 404.71875 C 389.85756 404.62809 385.82929 406.05906 382.71875 409.03125 C 376.49768 414.97562 376.27438 424.84143 382.21875 431.0625 C 385.42798 434.42112 389.79017 436.00791 394.09375 435.84375 L 429.90625 473.28125 C 428.92909 478.10806 430.2461 483.29448 433.90625 487.125 C 439.85062 493.34607 449.71643 493.56937 455.9375 487.625 C 462.15857 481.68063 462.38187 471.84607 456.4375 465.625 C 453.49615 462.54674 449.60027 460.93345 445.65625 460.8125 L 408.9375 422.375 C 409.54851 417.84258 408.15521 413.09497 404.75 409.53125 C 401.77781 406.42071 397.82994 404.80941 393.84375 404.71875 z "
       id="path4142-4"
       transform="translate(-63.664772,211.69371)" />
  </g>
</svg>
