999
DXF data, created by potrace 1.11, written by Peter Selinger 2001-2013
  0
SECTION
  2
HEADER
  9
$ACADVER
  1
AC1006
  9
$EXTMIN
 10
0.000000
 20
0.000000
 30
0.000000
  9
$EXTMAX
 10
50.828129
 20
56.692913
 30
0.000000
  0
ENDSEC
  0
SECTION
  2
ENTITIES
  0
POLYLINE
  8
0
 66
1
 70
1
  0
VERTEX
  8
0
 10
25.442690
 20
55.169172
 42
0.022690
  0
VERTEX
  8
0
 10
25.260298
 20
54.886735
 42
0.008198
  0
VERTEX
  8
0
 10
25.026334
 20
54.470068
 42
0.008111
  0
VERTEX
  8
0
 10
24.784659
 20
54.004741
 42
0.009554
  0
VERTEX
  8
0
 10
24.571542
 20
53.556356
 42
-0.007787
  0
VERTEX
  8
0
 10
24.367084
 20
53.122240
 42
-0.008064
  0
VERTEX
  8
0
 10
24.151500
 20
52.699782
 42
-0.007836
  0
VERTEX
  8
0
 10
23.953374
 20
52.340250
 42
-0.034146
  0
VERTEX
  8
0
 10
23.818694
 20
52.138052
 42
-0.087263
  0
VERTEX
  8
0
 10
23.643563
 20
51.977870
 42
-0.284680
  0
VERTEX
  8
0
 10
23.493148
 20
51.976054
 42
-0.096397
  0
VERTEX
  8
0
 10
23.309352
 20
52.142136
 42
-0.007450
  0
VERTEX
  8
0
 10
22.916689
 20
52.681948
 42
0.035877
  0
VERTEX
  8
0
 10
22.111701
 20
53.665870
 42
0.374026
  0
VERTEX
  8
0
 10
21.631826
 20
53.712823
 42
0.204030
  0
VERTEX
  8
0
 10
21.291511
 20
53.157708
 42
0.015638
  0
VERTEX
  8
0
 10
21.083878
 20
51.378191
 42
-0.004658
  0
VERTEX
  8
0
 10
20.906091
 20
49.496400
 42
-0.075438
  0
VERTEX
  8
0
 10
20.746606
 20
48.882331
 42
-0.161779
  0
VERTEX
  8
0
 10
20.430172
 20
48.525505
 42
-0.040351
  0
VERTEX
  8
0
 10
19.716614
 20
48.186182
 42
0.072107
  0
VERTEX
  8
0
 10
16.978255
 20
46.664533
 42
0.065981
  0
VERTEX
  8
0
 10
14.689801
 20
44.387360
 42
0.060336
  0
VERTEX
  8
0
 10
12.914415
 20
41.395605
 42
0.045344
  0
VERTEX
  8
0
 10
11.693276
 20
37.764531
 42
0.020359
  0
VERTEX
  8
0
 10
11.488171
 20
36.715496
 42
0.017428
  0
VERTEX
  8
0
 10
11.356168
 20
35.597406
 42
0.012285
  0
VERTEX
  8
0
 10
11.272570
 20
34.160056
 42
0.003967
  0
VERTEX
  8
0
 10
11.217992
 20
32.028003
 42
0.000000
  0
VERTEX
  8
0
 10
11.146636
 20
27.987584
 42
0.000000
  0
VERTEX
  8
0
 10
10.006957
 20
25.869980
 42
0.008513
  0
VERTEX
  8
0
 10
7.834274
 20
21.662877
 42
0.010075
  0
VERTEX
  8
0
 10
5.929595
 20
17.612162
 42
0.010138
  0
VERTEX
  8
0
 10
4.458329
 20
14.123611
 42
0.042514
  0
VERTEX
  8
0
 10
3.799668
 20
11.947044
 42
0.032295
  0
VERTEX
  8
0
 10
3.609687
 20
10.639717
 42
0.016899
  0
VERTEX
  8
0
 10
3.534115
 20
8.996084
 42
0.016811
  0
VERTEX
  8
0
 10
3.570234
 20
7.313924
 42
0.026446
  0
VERTEX
  8
0
 10
3.725915
 20
5.877604
 42
0.067352
  0
VERTEX
  8
0
 10
4.442322
 20
3.522927
 42
0.116411
  0
VERTEX
  8
0
 10
5.693525
 20
1.916189
 42
0.115351
  0
VERTEX
  8
0
 10
7.540141
 20
1.029406
 42
0.065364
  0
VERTEX
  8
0
 10
10.024253
 20
0.811563
 42
0.036275
  0
VERTEX
  8
0
 10
11.368952
 20
0.967692
 42
0.054635
  0
VERTEX
  8
0
 10
12.496145
 20
1.313004
 42
0.063423
  0
VERTEX
  8
0
 10
13.390812
 20
1.840946
 42
0.080644
  0
VERTEX
  8
0
 10
14.043452
 20
2.541406
 42
0.070852
  0
VERTEX
  8
0
 10
14.320617
 20
3.118620
 42
0.072615
  0
VERTEX
  8
0
 10
14.422548
 20
3.745379
 42
0.030655
  0
VERTEX
  8
0
 10
14.377989
 20
4.733883
 42
0.003195
  0
VERTEX
  8
0
 10
14.116581
 20
7.042958
 42
0.015492
  0
VERTEX
  8
0
 10
13.955624
 20
8.107218
 42
0.051220
  0
VERTEX
  8
0
 10
13.757599
 20
8.787074
 42
0.071988
  0
VERTEX
  8
0
 10
13.468528
 20
9.280993
 42
0.057824
  0
VERTEX
  8
0
 10
13.031228
 20
9.715363
 42
-0.053555
  0
VERTEX
  8
0
 10
12.839229
 20
9.902856
 42
-0.028593
  0
VERTEX
  8
0
 10
12.642711
 20
10.170641
 42
-0.028115
  0
VERTEX
  8
0
 10
12.471314
 20
10.470194
 42
-0.038925
  0
VERTEX
  8
0
 10
12.354922
 20
10.756862
 42
-0.025446
  0
VERTEX
  8
0
 10
12.095093
 20
11.745552
 42
-0.008783
  0
VERTEX
  8
0
 10
11.818127
 20
13.197070
 42
-0.008328
  0
VERTEX
  8
0
 10
11.594407
 20
14.635219
 42
-0.034239
  0
VERTEX
  8
0
 10
11.533456
 20
15.514400
 42
-0.052303
  0
VERTEX
  8
0
 10
11.618475
 20
16.330952
 42
-0.012728
  0
VERTEX
  8
0
 10
11.932664
 20
17.650748
 42
-0.005385
  0
VERTEX
  8
0
 10
12.310406
 20
19.015983
 42
-0.334192
  0
VERTEX
  8
0
 10
12.499546
 20
19.158295
 42
-0.355126
  0
VERTEX
  8
0
 10
12.559981
 20
19.109176
 42
-0.000686
  0
VERTEX
  8
0
 10
12.832645
 20
17.794427
 42
-0.004096
  0
VERTEX
  8
0
 10
13.128565
 20
16.295593
 42
-0.002474
  0
VERTEX
  8
0
 10
13.455802
 20
14.515341
 42
0.000031
  0
VERTEX
  8
0
 10
13.832717
 20
12.406947
 42
0.000019
  0
VERTEX
  8
0
 10
14.282105
 20
9.894606
 42
0.000019
  0
VERTEX
  8
0
 10
14.730401
 20
7.389451
 42
0.000032
  0
VERTEX
  8
0
 10
15.103618
 20
5.305072
 42
0.000000
  0
VERTEX
  8
0
 10
15.921719
 20
0.737758
 42
0.000000
  0
VERTEX
  8
0
 10
17.882119
 20
0.865133
 42
0.001858
  0
VERTEX
  8
0
 10
18.715075
 20
0.922363
 42
0.001564
  0
VERTEX
  8
0
 10
19.596852
 20
0.989013
 42
0.001577
  0
VERTEX
  8
0
 10
20.401370
 20
1.054909
 42
0.004373
  0
VERTEX
  8
0
 10
20.966603
 20
1.107984
 42
0.000000
  0
VERTEX
  8
0
 10
22.090687
 20
1.223459
 42
0.000000
  0
VERTEX
  8
0
 10
22.090687
 20
2.016204
 42
-0.091066
  0
VERTEX
  8
0
 10
22.330468
 20
3.321801
 42
-0.101304
  0
VERTEX
  8
0
 10
23.015818
 20
4.402468
 42
-0.103289
  0
VERTEX
  8
0
 10
24.058155
 20
5.112281
 42
-0.098315
  0
VERTEX
  8
0
 10
25.316318
 20
5.362088
 42
-0.098049
  0
VERTEX
  8
0
 10
26.603388
 20
5.107245
 42
-0.109177
  0
VERTEX
  8
0
 10
27.640705
 20
4.384651
 42
-0.104244
  0
VERTEX
  8
0
 10
28.309673
 20
3.261334
 42
-0.082534
  0
VERTEX
  8
0
 10
28.541949
 20
1.863756
 42
0.000000
  0
VERTEX
  8
0
 10
28.541949
 20
0.918564
 42
0.000000
  0
VERTEX
  8
0
 10
31.588674
 20
1.029764
 42
0.002197
  0
VERTEX
  8
0
 10
32.762022
 20
1.077752
 42
0.003527
  0
VERTEX
  8
0
 10
33.762258
 20
1.130134
 42
0.000733
  0
VERTEX
  8
0
 10
34.639410
 20
1.183567
 42
0.182768
  0
VERTEX
  8
0
 10
34.709730
 20
1.215296
 42
0.157922
  0
VERTEX
  8
0
 10
34.746665
 20
1.287625
 42
0.000070
  0
VERTEX
  8
0
 10
35.184330
 20
4.021462
 42
0.001011
  0
VERTEX
  8
0
 10
35.664710
 20
7.064240
 42
0.000614
  0
VERTEX
  8
0
 10
36.221008
 20
10.663820
 42
0.000000
  0
VERTEX
  8
0
 10
37.657955
 20
20.038012
 42
0.000000
  0
VERTEX
  8
0
 10
38.082058
 20
18.914509
 42
-0.030331
  0
VERTEX
  8
0
 10
38.644522
 20
17.098158
 42
-0.050859
  0
VERTEX
  8
0
 10
38.864167
 20
15.516975
 42
-0.046777
  0
VERTEX
  8
0
 10
38.768000
 20
13.834248
 42
-0.021612
  0
VERTEX
  8
0
 10
38.345456
 20
11.681199
 42
-0.012919
  0
VERTEX
  8
0
 10
38.141629
 20
10.923679
 42
-0.035527
  0
VERTEX
  8
0
 10
37.946958
 20
10.406032
 42
-0.050218
  0
VERTEX
  8
0
 10
37.730339
 20
10.037240
 42
-0.068317
  0
VERTEX
  8
0
 10
37.462641
 20
9.759984
 42
0.051504
  0
VERTEX
  8
0
 10
36.993234
 20
9.305330
 42
0.078027
  0
VERTEX
  8
0
 10
36.700196
 20
8.819457
 42
0.052915
  0
VERTEX
  8
0
 10
36.503467
 20
8.138483
 42
0.012706
  0
VERTEX
  8
0
 10
36.327389
 20
6.974193
 42
0.003535
  0
VERTEX
  8
0
 10
36.063832
 20
4.743686
 42
0.031539
  0
VERTEX
  8
0
 10
36.016970
 20
3.757615
 42
0.072521
  0
VERTEX
  8
0
 10
36.118808
 20
3.127998
 42
0.072312
  0
VERTEX
  8
0
 10
36.396225
 20
2.552996
 42
0.078357
  0
VERTEX
  8
0
 10
37.055722
 20
1.845481
 42
0.065064
  0
VERTEX
  8
0
 10
37.942439
 20
1.320958
 42
0.055319
  0
VERTEX
  8
0
 10
39.068228
 20
0.980466
 42
0.034281
  0
VERTEX
  8
0
 10
40.441984
 20
0.822285
 42
0.036410
  0
VERTEX
  8
0
 10
41.957162
 20
0.862725
 42
0.056717
  0
VERTEX
  8
0
 10
43.232513
 20
1.138272
 42
0.062246
  0
VERTEX
  8
0
 10
44.326148
 20
1.667135
 42
0.056513
  0
VERTEX
  8
0
 10
45.295960
 20
2.463758
 42
0.060451
  0
VERTEX
  8
0
 10
45.995047
 20
3.384377
 42
0.062757
  0
VERTEX
  8
0
 10
46.443083
 20
4.434217
 42
0.044469
  0
VERTEX
  8
0
 10
46.712669
 20
5.842543
 42
0.014480
  0
VERTEX
  8
0
 10
46.863652
 20
7.956587
 42
0.015512
  0
VERTEX
  8
0
 10
46.887086
 20
10.027070
 42
0.035833
  0
VERTEX
  8
0
 10
46.745270
 20
11.575394
 42
0.036636
  0
VERTEX
  8
0
 10
46.386268
 20
13.066846
 42
0.016909
  0
VERTEX
  8
0
 10
45.714145
 20
14.947348
 42
0.015912
  0
VERTEX
  8
0
 10
44.805159
 20
17.045033
 42
0.003077
  0
VERTEX
  8
0
 10
43.018532
 20
20.773296
 42
0.003427
  0
VERTEX
  8
0
 10
41.144213
 20
24.557435
 42
0.009601
  0
VERTEX
  8
0
 10
39.762432
 20
27.173500
 42
0.000000
  0
VERTEX
  8
0
 10
38.843511
 20
28.835189
 42
0.000000
  0
VERTEX
  8
0
 10
38.884069
 20
30.692370
 42
0.026122
  0
VERTEX
  8
0
 10
38.795838
 20
33.594012
 42
0.027205
  0
VERTEX
  8
0
 10
38.404640
 20
36.431026
 42
0.028438
  0
VERTEX
  8
0
 10
37.733993
 20
39.076432
 42
0.036772
  0
VERTEX
  8
0
 10
36.808432
 20
41.402818
 42
0.048380
  0
VERTEX
  8
0
 10
35.460255
 20
43.607438
 42
0.042415
  0
VERTEX
  8
0
 10
33.658463
 20
45.619534
 42
0.043381
  0
VERTEX
  8
0
 10
31.594285
 20
47.251523
 42
0.058229
  0
VERTEX
  8
0
 10
29.465605
 20
48.322035
 42
0.000000
  0
VERTEX
  8
0
 10
28.303357
 20
48.745812
 42
0.000000
  0
VERTEX
  8
0
 10
28.429426
 20
51.106547
 42
0.008870
  0
VERTEX
  8
0
 10
28.490751
 20
52.827831
 42
0.065713
  0
VERTEX
  8
0
 10
28.398146
 20
53.641212
 42
0.403374
  0
VERTEX
  8
0
 10
28.155675
 20
53.793017
 42
0.187012
  0
VERTEX
  8
0
 10
27.814363
 20
53.570762
 42
0.009075
  0
VERTEX
  8
0
 10
27.633111
 20
53.309034
 42
0.002387
  0
VERTEX
  8
0
 10
27.352567
 20
52.883404
 42
0.002423
  0
VERTEX
  8
0
 10
27.037837
 20
52.395760
 42
0.002484
  0
VERTEX
  8
0
 10
26.730446
 20
51.909073
 42
0.000000
  0
VERTEX
  8
0
 10
25.994153
 20
50.730383
 42
0.000000
  0
VERTEX
  8
0
 10
26.124888
 20
53.222916
 42
0.005758
  0
VERTEX
  8
0
 10
26.196974
 20
54.984991
 42
0.091884
  0
VERTEX
  8
0
 10
26.105760
 20
55.573057
 42
0.525007
  0
VERTEX
  8
0
 10
25.873485
 20
55.636530
 42
0.063051
  0
SEQEND
  0
POLYLINE
  8
0
 66
1
 70
1
  0
VERTEX
  8
0
 10
34.263064
 20
36.512726
 42
-0.101742
  0
VERTEX
  8
0
 10
34.962507
 20
35.774659
 42
-0.085818
  0
VERTEX
  8
0
 10
35.366928
 20
34.775293
 42
-0.089245
  0
VERTEX
  8
0
 10
35.403680
 20
33.734560
 42
-0.124324
  0
VERTEX
  8
0
 10
35.050768
 20
32.876245
 42
-0.097024
  0
VERTEX
  8
0
 10
33.990168
 20
31.908061
 42
-0.123305
  0
VERTEX
  8
0
 10
32.728433
 20
31.516291
 42
-0.132378
  0
VERTEX
  8
0
 10
31.497606
 20
31.775462
 42
-0.120899
  0
VERTEX
  8
0
 10
30.513949
 20
32.623323
 42
-0.172284
  0
VERTEX
  8
0
 10
29.990293
 20
34.461283
 42
-0.177678
  0
VERTEX
  8
0
 10
30.752680
 20
36.190037
 42
-0.180539
  0
VERTEX
  8
0
 10
32.439961
 20
36.997880
 42
-0.176493
  0
SEQEND
  0
POLYLINE
  8
0
 66
1
 70
1
  0
VERTEX
  8
0
 10
18.978151
 20
36.308111
 42
-0.047642
  0
VERTEX
  8
0
 10
19.275861
 20
36.063297
 42
-0.033608
  0
VERTEX
  8
0
 10
19.561756
 20
35.737455
 42
-0.032168
  0
VERTEX
  8
0
 10
19.815144
 20
35.357932
 42
-0.032881
  0
VERTEX
  8
0
 10
20.015698
 20
34.951742
 42
-0.015041
  0
VERTEX
  8
0
 10
20.234063
 20
34.376517
 42
-0.078031
  0
VERTEX
  8
0
 10
20.293708
 20
34.043042
 42
-0.080262
  0
VERTEX
  8
0
 10
20.247361
 20
33.711617
 42
-0.016424
  0
VERTEX
  8
0
 10
20.053960
 20
33.150581
 42
-0.061744
  0
VERTEX
  8
0
 10
19.672702
 20
32.432585
 42
-0.075826
  0
VERTEX
  8
0
 10
19.148784
 20
31.884477
 42
-0.075555
  0
VERTEX
  8
0
 10
18.483655
 20
31.516112
 42
-0.060752
  0
VERTEX
  8
0
 10
17.687216
 20
31.326607
 42
-0.151027
  0
VERTEX
  8
0
 10
16.255628
 20
31.598291
 42
-0.135546
  0
VERTEX
  8
0
 10
15.154443
 20
32.638199
 42
-0.134652
  0
VERTEX
  8
0
 10
14.738557
 20
34.101745
 42
-0.148377
  0
VERTEX
  8
0
 10
15.152379
 20
35.511954
 42
-0.103994
  0
VERTEX
  8
0
 10
15.900814
 20
36.257575
 42
-0.093041
  0
VERTEX
  8
0
 10
16.915835
 20
36.675663
 42
-0.093558
  0
VERTEX
  8
0
 10
18.008393
 20
36.695988
 42
-0.106657
  0
SEQEND
  0
POLYLINE
  8
0
 66
1
 70
1
  0
VERTEX
  8
0
 10
31.429421
 20
35.977302
 42
0.066687
  0
VERTEX
  8
0
 10
30.949948
 20
35.483921
 42
0.082696
  0
VERTEX
  8
0
 10
30.658703
 20
34.914672
 42
0.082841
  0
VERTEX
  8
0
 10
30.567957
 20
34.282573
 42
0.067196
  0
VERTEX
  8
0
 10
30.675108
 20
33.605289
 42
0.151798
  0
VERTEX
  8
0
 10
31.390438
 20
32.542434
 42
0.154707
  0
VERTEX
  8
0
 10
32.576674
 20
32.082163
 42
0.152628
  0
VERTEX
  8
0
 10
33.823666
 20
32.387020
 42
0.147313
  0
VERTEX
  8
0
 10
34.696129
 20
33.351036
 42
0.123125
  0
VERTEX
  8
0
 10
34.907390
 20
34.403761
 42
0.132784
  0
VERTEX
  8
0
 10
34.587461
 20
35.399119
 42
0.131256
  0
VERTEX
  8
0
 10
33.805472
 20
36.105671
 42
0.118993
  0
VERTEX
  8
0
 10
32.745045
 20
36.361662
 42
0.032953
  0
VERTEX
  8
0
 10
32.363115
 20
36.336463
 42
0.038137
  0
VERTEX
  8
0
 10
32.006495
 20
36.261197
 42
0.041024
  0
VERTEX
  8
0
 10
31.690351
 20
36.139941
 42
0.054623
  0
SEQEND
  0
POLYLINE
  8
0
 66
1
 70
1
  0
VERTEX
  8
0
 10
16.168672
 20
35.772126
 42
0.121736
  0
VERTEX
  8
0
 10
15.541554
 20
34.967422
 42
0.114363
  0
VERTEX
  8
0
 10
15.342592
 20
33.943851
 42
0.116868
  0
VERTEX
  8
0
 10
15.614744
 20
32.954457
 42
0.131276
  0
VERTEX
  8
0
 10
16.294930
 20
32.241914
 42
0.145366
  0
VERTEX
  8
0
 10
17.593512
 20
31.898052
 42
0.155304
  0
VERTEX
  8
0
 10
18.831016
 20
32.333020
 42
0.159499
  0
VERTEX
  8
0
 10
19.567785
 20
33.390964
 42
0.153887
  0
VERTEX
  8
0
 10
19.550289
 20
34.696916
 42
0.070555
  0
VERTEX
  8
0
 10
19.240224
 20
35.323292
 42
0.087539
  0
VERTEX
  8
0
 10
18.785777
 20
35.787140
 42
0.086960
  0
VERTEX
  8
0
 10
18.197450
 20
36.069536
 42
0.068616
  0
VERTEX
  8
0
 10
17.496606
 20
36.166169
 42
0.033050
  0
VERTEX
  8
0
 10
17.111033
 20
36.140655
 42
0.039096
  0
VERTEX
  8
0
 10
16.753820
 20
36.064404
 42
0.041964
  0
VERTEX
  8
0
 10
16.436177
 20
35.940348
 42
0.052624
  0
SEQEND
  0
ENDSEC
  0
EOF
