  0
SECTION
  2
HEADER
  9
$ACADVER
  1
AC1009
  9
$EXTMIN
 10
0.0
 20
0.0
 30
0.0
  9
$EXTMAX
 10
1000.0
 20
1000.0
 30
0.0
  9
$FILLMODE
 70
 0
  9
$SPLFRAME
 70
 1
  0
ENDSEC
  0
SECTION
  2
TABLES
  0
TABLE
  2
LAYER
 70
1
  0
LAYER
  2
0
 70
     0
 62
     7
  6
CONTINUOUS
  0
ENDTAB
  0
ENDSEC
  0
SECTION
  2
ENTITIES
  0
POLYLINE
  8
0
 62
     94
 66
     1
 10
0
 20
0
 30
0.0
 70
     1
 40
0
 41
0
  0
VERTEX
  8
0
 10
0.787978
 20
2.0746
 30
0.0
 40
0
 41
0
  0
VERTEX
  8
0
 10
0.744792
 20
2.06862
 30
0.0
 40
0
 41
0
  0
VERTEX
  8
0
 10
0.704264
 20
2.05251
 30
0.0
 40
0
 41
0
  0
VERTEX
  8
0
 10
0.668186
 20
2.02669
 30
0.0
 40
0
 41
0
  0
VERTEX
  8
0
 10
0.638672
 20
1.99164
 30
0.0
 40
0
 41
0
  0
VERTEX
  8
0
 10
0.612088
 20
1.92449
 30
0.0
 40
0
 41
0
  0
VERTEX
  8
0
 10
0.613282
 20
1.85471
 30
0.0
 40
0
 41
0
  0
VERTEX
  8
0
 10
0.640571
 20
1.79047
 30
0.0
 40
0
 41
0
  0
VERTEX
  8
0
 10
0.692165
 20
1.7399
 30
0.0
 40
0
 41
0
  0
VERTEX
  8
0
 10
0.759332
 20
1.71337
 30
0.0
 40
0
 41
0
  0
VERTEX
  8
0
 10
0.829101
 20
1.71474
 30
0.0
 40
0
 41
0
  0
VERTEX
  8
0
 10
0.893283
 20
1.74208
 30
0.0
 40
0
 41
0
  0
VERTEX
  8
0
 10
0.943901
 20
1.79372
 30
0.0
 40
0
 41
0
  0
VERTEX
  8
0
 10
0.970486
 20
1.86089
 30
0.0
 40
0
 41
0
  0
VERTEX
  8
0
 10
0.969293
 20
1.9305
 30
0.0
 40
0
 41
0
  0
VERTEX
  8
0
 10
0.942003
 20
1.99463
 30
0.0
 40
0
 41
0
  0
VERTEX
  8
0
 10
0.890408
 20
2.04508
 30
0.0
 40
0
 41
0
  0
VERTEX
  8
0
 10
0.840494
 20
2.06782
 30
0.0
 40
0
 41
0
  0
VERTEX
  8
0
 10
0.787978
 20
2.0746
 30
0.0
 40
0
 41
0
  0
SEQEND
 8
0
  0
POLYLINE
  8
0
 62
     94
 66
     1
 10
0
 20
0
 30
0.0
 70
     1
 40
0
 41
0
  0
VERTEX
  8
0
 10
0.790093
 20
2.00797
 30
0.0
 40
0
 41
0
  0
VERTEX
  8
0
 10
0.823514
 20
2.00369
 30
0.0
 40
0
 41
0
  0
VERTEX
  8
0
 10
0.85536
 20
1.98921
 30
0.0
 40
0
 41
0
  0
VERTEX
  8
0
 10
0.8884
 20
1.95688
 30
0.0
 40
0
 41
0
  0
VERTEX
  8
0
 10
0.905871
 20
1.91581
 30
0.0
 40
0
 41
0
  0
VERTEX
  8
0
 10
0.906685
 20
1.87115
 30
0.0
 40
0
 41
0
  0
VERTEX
  8
0
 10
0.889757
 20
1.82807
 30
0.0
 40
0
 41
0
  0
VERTEX
  8
0
 10
0.857368
 20
1.79514
 30
0.0
 40
0
 41
0
  0
VERTEX
  8
0
 10
0.816243
 20
1.77778
 30
0.0
 40
0
 41
0
  0
VERTEX
  8
0
 10
0.771593
 20
1.77707
 30
0.0
 40
0
 41
0
  0
VERTEX
  8
0
 10
0.728624
 20
1.79406
 30
0.0
 40
0
 41
0
  0
VERTEX
  8
0
 10
0.695583
 20
1.82644
 30
0.0
 40
0
 41
0
  0
VERTEX
  8
0
 10
0.678222
 20
1.86757
 30
0.0
 40
0
 41
0
  0
VERTEX
  8
0
 10
0.677518
 20
1.91222
 30
0.0
 40
0
 41
0
  0
VERTEX
  8
0
 10
0.694607
 20
1.95518
 30
0.0
 40
0
 41
0
  0
VERTEX
  8
0
 10
0.73649
 20
1.99397
 30
0.0
 40
0
 41
0
  0
VERTEX
  8
0
 10
0.790093
 20
2.00797
 30
0.0
 40
0
 41
0
  0
SEQEND
 8
0
  0
POLYLINE
  8
0
 62
     94
 66
     1
 10
0
 20
0
 30
0.0
 70
     1
 40
0
 41
0
  0
VERTEX
  8
0
 10
1.65468
 20
2.0746
 30
0.0
 40
0
 41
0
  0
VERTEX
  8
0
 10
1.61149
 20
2.06862
 30
0.0
 40
0
 41
0
  0
VERTEX
  8
0
 10
1.5709
 20
2.05251
 30
0.0
 40
0
 41
0
  0
VERTEX
  8
0
 10
1.53489
 20
2.02669
 30
0.0
 40
0
 41
0
  0
VERTEX
  8
0
 10
1.50538
 20
1.99164
 30
0.0
 40
0
 41
0
  0
VERTEX
  8
0
 10
1.47874
 20
1.92449
 30
0.0
 40
0
 41
0
  0
VERTEX
  8
0
 10
1.47993
 20
1.85471
 30
0.0
 40
0
 41
0
  0
VERTEX
  8
0
 10
1.50722
 20
1.79047
 30
0.0
 40
0
 41
0
  0
VERTEX
  8
0
 10
1.55881
 20
1.7399
 30
0.0
 40
0
 41
0
  0
VERTEX
  8
0
 10
1.62597
 20
1.71337
 30
0.0
 40
0
 41
0
  0
VERTEX
  8
0
 10
1.69575
 20
1.71474
 30
0.0
 40
0
 41
0
  0
VERTEX
  8
0
 10
1.75999
 20
1.74208
 30
0.0
 40
0
 41
0
  0
VERTEX
  8
0
 10
1.81054
 20
1.79372
 30
0.0
 40
0
 41
0
  0
VERTEX
  8
0
 10
1.83712
 20
1.86089
 30
0.0
 40
0
 41
0
  0
VERTEX
  8
0
 10
1.83594
 20
1.9305
 30
0.0
 40
0
 41
0
  0
VERTEX
  8
0
 10
1.80865
 20
1.99463
 30
0.0
 40
0
 41
0
  0
VERTEX
  8
0
 10
1.75711
 20
2.04508
 30
0.0
 40
0
 41
0
  0
VERTEX
  8
0
 10
1.70714
 20
2.06782
 30
0.0
 40
0
 41
0
  0
VERTEX
  8
0
 10
1.65468
 20
2.0746
 30
0.0
 40
0
 41
0
  0
SEQEND
 8
0
  0
POLYLINE
  8
0
 62
     94
 66
     1
 10
0
 20
0
 30
0.0
 70
     1
 40
0
 41
0
  0
VERTEX
  8
0
 10
1.65674
 20
2.00797
 30
0.0
 40
0
 41
0
  0
VERTEX
  8
0
 10
1.69015
 20
2.00369
 30
0.0
 40
0
 41
0
  0
VERTEX
  8
0
 10
1.722
 20
1.98921
 30
0.0
 40
0
 41
0
  0
VERTEX
  8
0
 10
1.75504
 20
1.95688
 30
0.0
 40
0
 41
0
  0
VERTEX
  8
0
 10
1.77257
 20
1.91581
 30
0.0
 40
0
 41
0
  0
VERTEX
  8
0
 10
1.77339
 20
1.87115
 30
0.0
 40
0
 41
0
  0
VERTEX
  8
0
 10
1.7564
 20
1.82807
 30
0.0
 40
0
 41
0
  0
VERTEX
  8
0
 10
1.72401
 20
1.79514
 30
0.0
 40
0
 41
0
  0
VERTEX
  8
0
 10
1.68294
 20
1.77778
 30
0.0
 40
0
 41
0
  0
VERTEX
  8
0
 10
1.63829
 20
1.77707
 30
0.0
 40
0
 41
0
  0
VERTEX
  8
0
 10
1.59526
 20
1.79406
 30
0.0
 40
0
 41
0
  0
VERTEX
  8
0
 10
1.56222
 20
1.82644
 30
0.0
 40
0
 41
0
  0
VERTEX
  8
0
 10
1.54486
 20
1.86757
 30
0.0
 40
0
 41
0
  0
VERTEX
  8
0
 10
1.54422
 20
1.91222
 30
0.0
 40
0
 41
0
  0
VERTEX
  8
0
 10
1.56125
 20
1.95518
 30
0.0
 40
0
 41
0
  0
VERTEX
  8
0
 10
1.60319
 20
1.99397
 30
0.0
 40
0
 41
0
  0
VERTEX
  8
0
 10
1.65674
 20
2.00797
 30
0.0
 40
0
 41
0
  0
SEQEND
 8
0
  0
POLYLINE
  8
0
 62
     94
 66
     1
 10
0
 20
0
 30
0.0
 70
     1
 40
0
 41
0
  0
VERTEX
  8
0
 10
0
 20
0.0110677
 30
0.0
 40
0
 41
0
  0
VERTEX
  8
0
 10
0.011122
 20
0.0110677
 30
0.0
 40
0
 41
0
  0
VERTEX
  8
0
 10
0.011122
 20
-0
 30
0.0
 40
0
 41
0
  0
VERTEX
  8
0
 10
0
 20
-0
 30
0.0
 40
0
 41
0
  0
VERTEX
  8
0
 10
0
 20
0.0110677
 30
0.0
 40
0
 41
0
  0
SEQEND
 8
0
  0
ENDSEC
  0
EOF
